<?xml version="1.0" encoding="UTF-8"?>
<svg version="1.1" xmlns="http://www.w3.org/2000/svg" width="48" height="48">
<path d="M0 0 C1.05058594 -0.04511719 2.10117187 -0.09023437 3.18359375 -0.13671875 C4.13363281 -0.18570312 5.08367188 -0.2346875 6.0625 -0.28515625 C8.62109375 0.23828125 8.62109375 0.23828125 10.90625 1.98046875 C13.57715153 7.05457325 13.37976544 12.083433 13.49609375 17.73828125 C13.5425 18.86621094 13.58890625 19.99414062 13.63671875 21.15625 C13.9366431 30.90379124 13.9366431 30.90379124 11.62109375 35.23828125 C8.65605272 38.19122337 6.45763467 38.62152662 2.33984375 38.63671875 C0.82970703 38.64251953 0.82970703 38.64251953 -0.7109375 38.6484375 C-1.75636719 38.63683594 -2.80179688 38.62523437 -3.87890625 38.61328125 C-4.92433594 38.62488281 -5.96976563 38.63648438 -7.046875 38.6484375 C-8.05363281 38.64457031 -9.06039063 38.64070313 -10.09765625 38.63671875 C-11.01482422 38.63333496 -11.93199219 38.62995117 -12.87695312 38.62646484 C-15.85667306 38.16415467 -17.21593308 37.31407709 -19.37890625 35.23828125 C-20.53818153 31.76045542 -20.49203691 29.05024868 -20.4765625 25.3828125 C-20.47514755 24.72117599 -20.4737326 24.05953949 -20.47227478 23.37785339 C-20.46668621 21.26878297 -20.4541359 19.15981948 -20.44140625 17.05078125 C-20.43638977 15.61914216 -20.43182712 14.1875014 -20.42773438 12.75585938 C-20.41672055 9.24996537 -20.3994638 5.74413375 -20.37890625 2.23828125 C-13.72060737 0.48548763 -6.84078308 0.4824136 0 0 Z " fill="#309166" transform="translate(28.37890625,5.76171875)"/>
<path d="M0 0 C1.05058594 -0.04511719 2.10117187 -0.09023437 3.18359375 -0.13671875 C4.13363281 -0.18570312 5.08367188 -0.2346875 6.0625 -0.28515625 C8.62109375 0.23828125 8.62109375 0.23828125 10.90625 1.98046875 C13.57715153 7.05457325 13.37976544 12.083433 13.49609375 17.73828125 C13.5425 18.86621094 13.58890625 19.99414062 13.63671875 21.15625 C13.9366431 30.90379124 13.9366431 30.90379124 11.62109375 35.23828125 C8.65605272 38.19122337 6.45763467 38.62152662 2.33984375 38.63671875 C0.82970703 38.64251953 0.82970703 38.64251953 -0.7109375 38.6484375 C-1.75636719 38.63683594 -2.80179688 38.62523437 -3.87890625 38.61328125 C-4.92433594 38.62488281 -5.96976563 38.63648438 -7.046875 38.6484375 C-8.05363281 38.64457031 -9.06039063 38.64070313 -10.09765625 38.63671875 C-11.01482422 38.63333496 -11.93199219 38.62995117 -12.87695312 38.62646484 C-15.85667306 38.16415467 -17.21593308 37.31407709 -19.37890625 35.23828125 C-20.53818153 31.76045542 -20.49203691 29.05024868 -20.4765625 25.3828125 C-20.47514755 24.72117599 -20.4737326 24.05953949 -20.47227478 23.37785339 C-20.46668621 21.26878297 -20.4541359 19.15981948 -20.44140625 17.05078125 C-20.43638977 15.61914216 -20.43182712 14.1875014 -20.42773438 12.75585938 C-20.41672055 9.24996537 -20.3994638 5.74413375 -20.37890625 2.23828125 C-13.72060737 0.48548763 -6.84078308 0.4824136 0 0 Z M-1.625 1.71484375 C-6.17338639 2.57935974 -10.77868635 2.68889088 -15.39453125 2.95703125 C-18.26029841 2.90712569 -18.26029841 2.90712569 -19.37890625 4.23828125 C-19.48317675 8.34081125 -19.32371706 12.43791721 -19.19189453 16.5390625 C-19.12938364 18.5975608 -19.08781871 20.65581891 -19.046875 22.71484375 C-19.00691406 24.0090625 -18.96695312 25.30328125 -18.92578125 26.63671875 C-18.89323242 27.82958496 -18.86068359 29.02245117 -18.82714844 30.25146484 C-18.35324506 33.40927197 -17.89717327 34.37013313 -15.37890625 36.23828125 C-14.38890625 35.74328125 -14.38890625 35.74328125 -13.37890625 35.23828125 C-13.70890625 32.59828125 -14.03890625 29.95828125 -14.37890625 27.23828125 C-13.38890625 27.56828125 -12.39890625 27.89828125 -11.37890625 28.23828125 C-11.04890625 30.87828125 -10.71890625 33.51828125 -10.37890625 36.23828125 C-7.46124734 36.34634269 -4.547595 36.42561002 -1.62890625 36.48828125 C-0.80390625 36.52179687 0.02109375 36.5553125 0.87109375 36.58984375 C1.6703125 36.60273437 2.46953125 36.615625 3.29296875 36.62890625 C4.02612305 36.64985352 4.75927734 36.67080078 5.51464844 36.69238281 C8.59507467 36.02831318 9.74110277 34.7272944 11.62109375 32.23828125 C12.21642251 29.52765978 12.21642251 29.52765978 12.1171875 26.5546875 C12.11783203 25.46220703 12.11847656 24.36972656 12.11914062 23.24414062 C12.08916992 21.53967773 12.08916992 21.53967773 12.05859375 19.80078125 C12.06568359 18.66833984 12.07277344 17.53589844 12.08007812 16.36914062 C12.04394303 8.82960622 12.04394303 8.82960622 8.62109375 2.23828125 C5.33706656 0.59626765 1.9140171 0.96395664 -1.625 1.71484375 Z " fill="#030806" transform="translate(28.37890625,5.76171875)"/>
<path d="M0 0 C0.33 0 0.66 0 1 0 C1.05784708 4.12494151 1.09354407 8.24977944 1.125 12.375 C1.15013672 14.1384375 1.15013672 14.1384375 1.17578125 15.9375 C1.18222656 17.05898438 1.18867187 18.18046875 1.1953125 19.3359375 C1.20578613 20.37282715 1.21625977 21.4097168 1.22705078 22.47802734 C1 25 1 25 -1 27 C-1.78375 26.835 -2.5675 26.67 -3.375 26.5 C-6.41320245 25.92129477 -7.43957492 26.38788051 -10 28 C-11.76615118 23.29026351 -12.48594831 18.96916636 -13 14 C-12.360625 13.855625 -11.72125 13.71125 -11.0625 13.5625 C-9.02454854 13.18992819 -9.02454854 13.18992819 -8 12 C-9.65 11.67 -11.3 11.34 -13 11 C-12.67 9.68 -12.34 8.36 -12 7 C-8.7 6.67 -5.4 6.34 -2 6 C-1.67 6.66 -1.34 7.32 -1 8 C-0.67 5.36 -0.34 2.72 0 0 Z " fill="#2F8256" transform="translate(39,13)"/>
<path d="M0 0 C0 1.65 0 3.3 0 5 C-2.20751848 5.33868777 -4.41605911 5.67071689 -6.625 6 C-7.85476562 6.185625 -9.08453125 6.37125 -10.3515625 6.5625 C-13.6166027 6.95402516 -16.71712451 7.08080924 -20 7 C-20.66 5.02 -21.32 3.04 -22 1 C-14.64479068 0.36338219 -7.38395674 -0.12515181 0 0 Z " fill="#6FC4C7" transform="translate(35,11)"/>
<path d="M0 0 C1.67542976 0.28604898 3.34385343 0.61781233 5 1 C4.814375 1.556875 4.62875 2.11375 4.4375 2.6875 C3.92448835 5.399133 4.3359276 7.34371039 5 10 C4.278125 9.814375 3.55625 9.62875 2.8125 9.4375 C-0.12826973 8.98004693 -2.14103058 9.26483643 -5 10 C-5.70074844 6.846632 -6 4.27275026 -6 1 C-4.7934375 1.0309375 -4.7934375 1.0309375 -3.5625 1.0625 C-1.06645115 1.29633621 -1.06645115 1.29633621 0 0 Z " fill="#38673A" transform="translate(19,21)"/>
<path d="M0 0 C1.9375 0.5625 1.9375 0.5625 4 2 C4.33 4.31 4.66 6.62 5 9 C9.95 9.33 14.9 9.66 20 10 C20 10.33 20 10.66 20 11 C17.04142591 11.05379226 14.08382279 11.09357093 11.125 11.125 C9.86236328 11.15013672 9.86236328 11.15013672 8.57421875 11.17578125 C7.76855469 11.18222656 6.96289062 11.18867187 6.1328125 11.1953125 C5.38918457 11.20578613 4.64555664 11.21625977 3.87939453 11.22705078 C2 11 2 11 0 9 C-0.62931533 6.32404177 -0.78130812 3.75551768 -1 1 C-0.67 0.67 -0.34 0.34 0 0 Z " fill="#2E502C" transform="translate(14,32)"/>
<path d="M0 0 C2.475 0.99 2.475 0.99 5 2 C4.01 2.495 4.01 2.495 3 3 C3.103125 4.27875 3.20625 5.5575 3.3125 6.875 C3.37050781 7.59429687 3.42851562 8.31359375 3.48828125 9.0546875 C3.87393036 11.39519216 3.87393036 11.39519216 7 13 C4.69 13 2.38 13 0 13 C-0.103125 11.741875 -0.20625 10.48375 -0.3125 9.1875 C-0.64858808 6.39500343 -0.80025876 5.25566879 -2.5625 3 C-3.036875 2.67 -3.51125 2.34 -4 2 C-2.68 2 -1.36 2 0 2 C0 1.34 0 0.68 0 0 Z " fill="#38AE78" transform="translate(18,29)"/>
<path d="M0 0 C0.99 0 1.98 0 3 0 C4.60725635 3.21451269 4.05748185 6.43612536 4 10 C2.0625 10.5625 2.0625 10.5625 0 11 C-1 10 -1 10 -1.1328125 7.96875 C-1.13023438 7.1540625 -1.12765625 6.339375 -1.125 5.5 C-1.12757812 4.6853125 -1.13015625 3.870625 -1.1328125 3.03125 C-1 1 -1 1 0 0 Z " fill="#6D4515" transform="translate(34,19)"/>
<path d="M0 0 C1.32 0.66 2.64 1.32 4 2 C4 8.27 4 14.54 4 21 C3.67 21 3.34 21 3 21 C2.67 17.7 2.34 14.4 2 11 C1.01 11 0.02 11 -1 11 C-1 10.34 -1 9.68 -1 9 C-0.34 8.67 0.32 8.34 1 8 C0.67 5.36 0.34 2.72 0 0 Z " fill="#38AF79" transform="translate(35,8)"/>
<path d="M0 0 C1.98 0.495 1.98 0.495 4 1 C4 3.97 4 6.94 4 10 C2.68 9.67 1.36 9.34 0 9 C-0.87890625 2.84765625 -0.87890625 2.84765625 -1 1 C-0.67 0.67 -0.34 0.34 0 0 Z " fill="#32421C" transform="translate(27,26)"/>
<path d="M0 0 C1.32 0.33 2.64 0.66 4 1 C4.33 3.31 4.66 5.62 5 8 C3.68 8.33 2.36 8.66 1 9 C0.29925156 5.846632 0 3.27275026 0 0 Z " fill="#353812" transform="translate(21,32)"/>
<path d="M0 0 C2.0625 0.4375 2.0625 0.4375 4 1 C4 2.98 4 4.96 4 7 C2.35 7 0.7 7 -1 7 C-1.04254356 5.00045254 -1.04080783 2.99958364 -1 1 C-0.67 0.67 -0.34 0.34 0 0 Z " fill="#642413" transform="translate(34,32)"/>
<path d="M0 0 C1.32 0 2.64 0 4 0 C4 1.65 4 3.3 4 5 C2.35 4.67 0.7 4.34 -1 4 C-0.67 2.68 -0.34 1.36 0 0 Z " fill="#4A4611" transform="translate(27,20)"/>
<path d="M0 0 C1.98 0.495 1.98 0.495 4 1 C4 2.32 4 3.64 4 5 C2.35 4.67 0.7 4.34 -1 4 C-0.67 2.68 -0.34 1.36 0 0 Z " fill="#414718" transform="translate(20,26)"/>
<path d="M0 0 C2.475 0.495 2.475 0.495 5 1 C5 1.99 5 2.98 5 4 C3.35 4 1.7 4 0 4 C0 2.68 0 1.36 0 0 Z " fill="#413B0E" transform="translate(19,21)"/>
<path d="M0 0 C1.32 0.66 2.64 1.32 4 2 C4 2.66 4 3.32 4 4 C2.68 4.33 1.36 4.66 0 5 C-0.5625 3.0625 -0.5625 3.0625 -1 1 C-0.67 0.67 -0.34 0.34 0 0 Z " fill="#3A3F15" transform="translate(14,32)"/>
<path d="M0 0 C1.98 0.495 1.98 0.495 4 1 C4 1.99 4 2.98 4 4 C2.35 3.67 0.7 3.34 -1 3 C-0.67 2.01 -0.34 1.02 0 0 Z " fill="#454010" transform="translate(27,26)"/>
</svg>
